<svg width="60" height="60" viewBox="0 0 60 60" fill="none" xmlns="http://www.w3.org/2000/svg">
<path d="M0 30C0 13.4315 13.4315 0 30 0C46.5685 0 60 13.4315 60 30C60 46.5685 46.5685 60 30 60C13.4315 60 0 46.5685 0 30Z" fill="url(#paint0_linear_3_3)"/>
<path fill-rule="evenodd" clip-rule="evenodd" d="M18.0031 31.7269C18.0031 31.1699 18.4898 30.7342 18.9635 30.4412C19.0188 30.4069 19.0733 30.3694 19.1267 30.3286L30.1914 21.8649C30.3252 21.7627 30.4888 21.7072 30.6572 21.7072C30.8239 21.7072 30.9861 21.7616 31.1192 21.862L42.6168 30.5431C42.8671 30.7321 43.0142 31.0276 43.0142 31.3412V43.95C43.0142 44.5023 42.5665 44.95 42.0142 44.95H35.6771C35.1248 44.95 34.6771 44.5023 34.6771 43.95V38.3847C34.6771 37.2801 33.7817 36.3847 32.6771 36.3847H28.3401C27.2355 36.3847 26.3401 37.2801 26.3401 38.3847V43.95C26.3401 44.5023 25.8923 44.95 25.3401 44.95H19.0031C18.4508 44.95 18.0031 44.5023 18.0031 43.95V31.7269Z" fill="white"/>
<path d="M28.9062 15.5251C29.7757 14.844 31.0108 15.0135 31.6648 15.9036L31.8158 16.1093C32.4698 16.9995 32.295 18.2732 31.4254 18.9543L17.1942 30.1008C16.2692 30.8254 14.9553 30.6451 14.2596 29.6981C13.564 28.7511 13.7499 27.3961 14.675 26.6716L28.9062 15.5251Z" fill="white"/>
<path d="M46.2951 26.0457C47.2367 26.75 47.4526 28.1012 46.7773 29.0638C46.102 30.0263 44.7913 30.2357 43.8497 29.5315L28.5453 18.0846C28.1031 17.7538 28.0017 17.1191 28.3189 16.667L29.0413 15.6371C29.6757 14.7329 30.907 14.5362 31.7915 15.1978L46.2951 26.0457Z" fill="white"/>
<defs>
<linearGradient id="paint0_linear_3_3" x1="54" y1="60" x2="8.67141" y2="7.4151" gradientUnits="userSpaceOnUse">
<stop stop-color="#2972FE"/>
<stop offset="1" stop-color="#6499FF"/>
</linearGradient>
</defs>
</svg>
